<svg xmlns="http://www.w3.org/2000/svg" viewBox="0 0 200 200">
  <defs>
    <linearGradient id="gradient1" x1="0%" y1="0%" x2="100%" y2="100%">
      <stop offset="0%" style="stop-color:#8B5CF6;stop-opacity:1" />
      <stop offset="100%" style="stop-color:#3B82F6;stop-opacity:1" />
    </linearGradient>
  </defs>
  <path d="M50 60 C50 45, 65 30, 80 30 L150 30 C165 30, 180 45, 180 60 L180 120 C180 135, 165 150, 150 150 L120 150 L80 180 L80 150 L80 150 C65 150, 50 135, 50 120 Z" fill="url(#gradient1)"/>
  <path d="M70 100 C70 90, 80 80, 90 80 L130 80 C140 80, 150 90, 150 100 L150 130 C150 140, 140 150, 130 150 L110 150 L90 170 L90 150 C80 150, 70 140, 70 130 Z" fill="#1E40AF"/>
</svg>